<svg width="1288" height="728" viewBox="0 0 1288 728" fill="none" xmlns="http://www.w3.org/2000/svg">
<g filter="url(#filter0_d_142_94)">
<path d="M4 152.646C4 68.3419 72.3418 0 156.646 0H1057C1182.37 0 1284 101.631 1284 227V243.693C1284 369.061 1182.37 470.693 1057 470.693H783.899C715.055 470.693 659.246 526.502 659.246 595.346V595.346C659.246 664.191 603.436 720 534.592 720H159.338C73.5473 720 4 650.453 4 564.661V475.22C4 438.826 33.503 409.323 69.8967 409.323V409.323V409.323C88.9829 409.323 104.455 393.85 104.455 374.764V358.583V339.85C104.455 320.764 88.9829 305.292 69.8967 305.292V305.292V305.292C33.503 305.292 4 275.789 4 239.395V152.646Z" fill="#4ECC53"/>
<path d="M156.646 0.5H1057C1182.09 0.5 1283.5 101.907 1283.5 227V243.693C1283.5 368.785 1182.09 470.193 1057 470.193H783.899C714.779 470.193 658.746 526.226 658.746 595.346C658.746 663.915 603.16 719.5 534.592 719.5H159.338C73.8235 719.5 4.5 650.176 4.5 564.661V475.22C4.5 439.102 33.7791 409.823 69.8967 409.823C89.259 409.823 104.955 394.127 104.955 374.764V358.583V339.85C104.955 320.488 89.259 304.792 69.8967 304.792C33.7791 304.792 4.5 275.512 4.5 239.395V152.646C4.5 68.618 72.618 0.5 156.646 0.5Z" stroke="black"/>
</g>
<defs>
<filter id="filter0_d_142_94" x="0" y="0" width="1288" height="728" filterUnits="userSpaceOnUse" color-interpolation-filters="sRGB">
<feFlood flood-opacity="0" result="BackgroundImageFix"/>
<feColorMatrix in="SourceAlpha" type="matrix" values="0 0 0 0 0 0 0 0 0 0 0 0 0 0 0 0 0 0 127 0" result="hardAlpha"/>
<feOffset dy="4"/>
<feGaussianBlur stdDeviation="2"/>
<feComposite in2="hardAlpha" operator="out"/>
<feColorMatrix type="matrix" values="0 0 0 0 0 0 0 0 0 0 0 0 0 0 0 0 0 0 0.25 0"/>
<feBlend mode="normal" in2="BackgroundImageFix" result="effect1_dropShadow_142_94"/>
<feBlend mode="normal" in="SourceGraphic" in2="effect1_dropShadow_142_94" result="shape"/>
</filter>
</defs>
</svg>
